<svg xmlns="http://www.w3.org/2000/svg" width="66.946" height="41.777" viewBox="0 0 66.946 41.777">
  <g id="Group_1663" data-name="Group 1663" transform="translate(-578.83 131.461)">
    <g id="Group_1654" data-name="Group 1654" transform="translate(611.859 -131.461)">
      <g id="Group_1653" data-name="Group 1653">
        <path id="Path_1292" data-name="Path 1292" d="M634.656-100.058a15.581,15.581,0,0,1-8.942-2.823A15.588,15.588,0,0,1,619.236-113l-2.76-15.453,15.454-2.76a15.6,15.6,0,0,1,11.736,2.575,15.6,15.6,0,0,1,6.478,10.119,15.6,15.6,0,0,1-2.575,11.736,15.594,15.594,0,0,1-10.119,6.478A15.966,15.966,0,0,1,634.656-100.058ZM626-121.818l1.317,7.375a7.447,7.447,0,0,0,3.091,4.83,7.44,7.44,0,0,0,5.6,1.228,7.438,7.438,0,0,0,4.829-3.091,7.444,7.444,0,0,0,1.229-5.6,7.448,7.448,0,0,0-3.092-4.83,7.44,7.44,0,0,0-5.6-1.228Z" transform="translate(-616.476 131.461)" fill="#fff"/>
      </g>
    </g>
    <g id="Group_1656" data-name="Group 1656" transform="translate(578.83 -131.46)">
      <g id="Group_1655" data-name="Group 1655">
        <path id="Path_1293" data-name="Path 1293" d="M594.5-100.057a15.576,15.576,0,0,1-8.941-2.823A15.588,15.588,0,0,1,579.077-113a15.716,15.716,0,0,1,12.693-18.214,15.714,15.714,0,0,1,18.213,12.693l2.76,15.454-15.454,2.76A15.868,15.868,0,0,1,594.5-100.057Zm.037-23.195a7.538,7.538,0,0,0-1.321.118,7.5,7.5,0,0,0-6.058,8.693,7.448,7.448,0,0,0,3.092,4.83,7.44,7.44,0,0,0,5.6,1.228l7.375-1.317-1.317-7.375A7.5,7.5,0,0,0,594.532-123.252Z" transform="translate(-578.83 131.46)" fill="#fff"/>
      </g>
    </g>
    <g id="Group_1659" data-name="Group 1659" transform="translate(578.857 -96.089)">
      <g id="Group_1658" data-name="Group 1658">
        <g id="Group_1657" data-name="Group 1657">
          <path id="Path_1294" data-name="Path 1294" d="M584.48-87.934a3.358,3.358,0,0,1-.232,1.263,2.868,2.868,0,0,1-.652.991,2.977,2.977,0,0,1-1.013.648,3.555,3.555,0,0,1-1.312.233h-2.409v-6.267h2.41a3.555,3.555,0,0,1,1.313.233,2.958,2.958,0,0,1,1.013.65,2.894,2.894,0,0,1,.652.991A3.335,3.335,0,0,1,584.48-87.934Zm-1.33,0a2.832,2.832,0,0,0-.13-.885,1.858,1.858,0,0,0-.372-.665,1.61,1.61,0,0,0-.59-.418,2.018,2.018,0,0,0-.788-.147h-1.106v4.237h1.106a2.034,2.034,0,0,0,.788-.145,1.6,1.6,0,0,0,.59-.418,1.892,1.892,0,0,0,.372-.668A2.858,2.858,0,0,0,583.15-87.934Z" transform="translate(-578.861 91.135)" fill="#fff"/>
          <path id="Path_1295" data-name="Path 1295" d="M587.9-90.05v1.611h2.09v.981H587.9v1.645h2.687V-84.8H586.6v-6.267h3.99v1.015Z" transform="translate(-579.81 91.135)" fill="#fff"/>
          <path id="Path_1296" data-name="Path 1296" d="M595.822-89.875a.476.476,0,0,1-.123.145.273.273,0,0,1-.162.046.4.4,0,0,1-.2-.068c-.074-.044-.16-.093-.257-.145a2.622,2.622,0,0,0-.337-.145,1.361,1.361,0,0,0-.445-.067.988.988,0,0,0-.674.2.674.674,0,0,0-.225.526.494.494,0,0,0,.123.343,1.077,1.077,0,0,0,.324.235,3.082,3.082,0,0,0,.455.177q.255.078.523.17a4.526,4.526,0,0,1,.523.218,1.814,1.814,0,0,1,.455.316,1.42,1.42,0,0,1,.324.464,1.616,1.616,0,0,1,.124.667,2.152,2.152,0,0,1-.149.8,1.882,1.882,0,0,1-.43.652,2.006,2.006,0,0,1-.693.439,2.581,2.581,0,0,1-.935.16,2.945,2.945,0,0,1-.593-.061,3.421,3.421,0,0,1-.57-.168,3.189,3.189,0,0,1-.517-.258,2.3,2.3,0,0,1-.423-.337l.38-.613a.386.386,0,0,1,.125-.115.323.323,0,0,1,.163-.046.452.452,0,0,1,.247.087c.087.057.185.121.3.19a2.464,2.464,0,0,0,.391.189,1.468,1.468,0,0,0,.534.087,1.065,1.065,0,0,0,.7-.207.76.76,0,0,0,.248-.619.579.579,0,0,0-.124-.384.985.985,0,0,0-.321-.247,2.593,2.593,0,0,0-.454-.17c-.17-.047-.344-.1-.523-.158a4.462,4.462,0,0,1-.523-.207,1.6,1.6,0,0,1-.454-.32,1.517,1.517,0,0,1-.322-.491,1.9,1.9,0,0,1-.123-.73,1.729,1.729,0,0,1,.138-.678,1.717,1.717,0,0,1,.407-.583,2.018,2.018,0,0,1,.658-.411,2.416,2.416,0,0,1,.9-.155,3.037,3.037,0,0,1,1.047.175,2.335,2.335,0,0,1,.814.486Z" transform="translate(-580.464 91.145)" fill="#fff"/>
          <path id="Path_1297" data-name="Path 1297" d="M599.471-84.8h-1.305v-6.267h1.305Z" transform="translate(-581.229 91.135)" fill="#fff"/>
          <path id="Path_1298" data-name="Path 1298" d="M604.394-88h2.15v2.586a3.385,3.385,0,0,1-1.021.512,3.985,3.985,0,0,1-1.147.161,3.894,3.894,0,0,1-1.4-.24,3.168,3.168,0,0,1-1.071-.668,2.942,2.942,0,0,1-.687-1.014,3.353,3.353,0,0,1-.241-1.284,3.509,3.509,0,0,1,.231-1.291,2.9,2.9,0,0,1,.659-1.011,3.008,3.008,0,0,1,1.034-.66,3.708,3.708,0,0,1,1.359-.239,3.93,3.93,0,0,1,.725.063,3.421,3.421,0,0,1,.622.174,2.912,2.912,0,0,1,.523.261,2.933,2.933,0,0,1,.432.333l-.375.579a.349.349,0,0,1-.225.168.416.416,0,0,1-.3-.069c-.1-.063-.205-.12-.3-.17a2.333,2.333,0,0,0-.318-.132,2.245,2.245,0,0,0-.367-.087,3.2,3.2,0,0,0-.458-.03,1.993,1.993,0,0,0-.79.152,1.666,1.666,0,0,0-.6.428,1.913,1.913,0,0,0-.382.665,2.64,2.64,0,0,0-.133.868,2.712,2.712,0,0,0,.146.926,1.913,1.913,0,0,0,.415.689,1.76,1.76,0,0,0,.641.427,2.265,2.265,0,0,0,.832.147,2.176,2.176,0,0,0,.555-.063,2.718,2.718,0,0,0,.477-.17V-87.04h-.708a.277.277,0,0,1-.2-.067.222.222,0,0,1-.071-.17V-88Z" transform="translate(-581.573 91.145)" fill="#fff"/>
          <path id="Path_1299" data-name="Path 1299" d="M614.145-91.065V-84.8h-.67a.6.6,0,0,1-.254-.05.632.632,0,0,1-.2-.17l-3.122-3.974c.008.1.015.2.019.3s.007.188.007.272V-84.8h-1.145v-6.267h.682a1.288,1.288,0,0,1,.14.006.307.307,0,0,1,.105.031.38.38,0,0,1,.09.062.967.967,0,0,1,.095.1l3.144,3.991c-.011-.11-.019-.216-.026-.318s-.008-.2-.008-.291v-3.585Z" transform="translate(-582.53 91.135)" fill="#fff"/>
          <path id="Path_1300" data-name="Path 1300" d="M624.23-91.065,621.707-84.8h-1.175l-2.522-6.267h1.046a.445.445,0,0,1,.275.08.49.49,0,0,1,.158.205l1.356,3.61q.077.2.153.443c.051.16.1.327.14.5.038-.175.078-.343.124-.5s.093-.308.145-.443l1.347-3.61a.5.5,0,0,1,.153-.2.422.422,0,0,1,.275-.089Z" transform="translate(-583.662 91.135)" fill="#fff"/>
          <path id="Path_1301" data-name="Path 1301" d="M630.805-84.8H629.8a.445.445,0,0,1-.275-.08.5.5,0,0,1-.158-.205l-.423-1.2h-2.5l-.424,1.2a.5.5,0,0,1-.151.2.419.419,0,0,1-.272.089h-1.015l2.449-6.267h1.326Zm-2.177-2.38-.678-1.917c-.04-.1-.083-.219-.127-.354s-.088-.283-.127-.44c-.04.161-.083.311-.127.447s-.088.256-.127.357l-.673,1.908h1.859Z" transform="translate(-584.468 91.135)" fill="#fff"/>
          <path id="Path_1302" data-name="Path 1302" d="M636.3-85.852V-84.8h-3.719v-6.267h1.3v5.213Z" transform="translate(-585.449 91.135)" fill="#fff"/>
          <path id="Path_1303" data-name="Path 1303" d="M641.684-85.852V-84.8h-3.718v-6.267h1.295v5.213Z" transform="translate(-586.109 91.135)" fill="#fff"/>
          <path id="Path_1304" data-name="Path 1304" d="M644.657-90.05v1.611h2.09v.981h-2.09v1.645h2.687V-84.8h-3.99v-6.267h3.99v1.015Z" transform="translate(-586.77 91.135)" fill="#fff"/>
          <path id="Path_1305" data-name="Path 1305" d="M651.979-87.208v2.41h-1.295v-2.41l-2.277-3.857h1.14a.423.423,0,0,1,.27.08.582.582,0,0,1,.162.205l1.027,1.973q.1.2.189.372a3.579,3.579,0,0,1,.148.345c.04-.115.088-.232.14-.348s.113-.24.18-.369l1.019-1.973a.662.662,0,0,1,.155-.195.386.386,0,0,1,.268-.09h1.148Z" transform="translate(-587.39 91.135)" fill="#fff"/>
        </g>
      </g>
    </g>
  </g>
</svg>
