<svg xmlns="http://www.w3.org/2000/svg" width="240" height="170" viewBox="0 0 240 170">
  <g id="Group_1665" data-name="Group 1665" transform="translate(-593 -1852)">
    <g id="Group_1562" data-name="Group 1562" transform="translate(-344 -41)">
      <rect id="Rectangle_975" data-name="Rectangle 975" width="240" height="170" transform="translate(937 1893)" fill="rgba(236,239,238,0.75)" opacity="0.999"/>
    </g>
    <path id="Icon_metro-file-picture" data-name="Icon metro-file-picture" d="M42.227,45.944H10.787V39.656l9.432-15.72,12.92,15.72,9.088-6.288Zm0-20.436a4.716,4.716,0,1,1-4.716-4.716A4.716,4.716,0,0,1,42.227,25.508Zm4.215-12.327a44.544,44.544,0,0,0-4.283-4.9A44.555,44.555,0,0,0,37.262,4C34.728,2.143,33.5,1.928,32.795,1.928H8.429A3.934,3.934,0,0,0,4.5,5.858V48.3a3.934,3.934,0,0,0,3.93,3.93H44.585a3.934,3.934,0,0,0,3.93-3.93V17.648c0-.7-.215-1.933-2.073-4.467Zm-6.506-2.675a42.878,42.878,0,0,1,3.566,4H35.939V6.941a42.835,42.835,0,0,1,4,3.565Zm5.435,37.8a.8.8,0,0,1-.786.786H8.429a.8.8,0,0,1-.786-.786V5.858a.8.8,0,0,1,.786-.786H32.795v11a1.572,1.572,0,0,0,1.572,1.572h11Z" transform="translate(682.493 1910.836)" fill="#de8d61"/>
  </g>
</svg>
