<svg xmlns="http://www.w3.org/2000/svg" width="53.841" height="54.012" viewBox="0 0 53.841 54.012">
  <g id="Group_1662" data-name="Group 1662" transform="translate(-1795.098 3857.096)">
    <g id="Group_1650" data-name="Group 1650" transform="translate(1797.627 -3854.16)">
      <g id="Group_1646" data-name="Group 1646" transform="translate(44.503 8.5)">
        <path id="Path_1264" data-name="Path 1264" d="M1868.431-3817.734v-1.92l-.964.96Zm-3.955-13.544v1.919l.963-.959Zm0,3.875v1.919l.963-.959Zm3.955,13.543v-1.919l-.964.959Zm-3.888-18.339,1.946,1.936,1.943-1.936-1.943-1.936Zm1.946.96-.966-.96.966-.958.963.958Zm-2.012,7.71v1.919l.963-.959Zm3.955-1.955v-1.919l-.964.96Zm-3.955,9.705v1.919l.963-.959Zm0-3.875v1.92l.963-.96Zm3.955-1.956v-1.919l-.964.96Zm0-7.75v-1.919l-.964.96Zm-1.943,6.846,1.943-1.935-1.943-1.94-1.946,1.94Zm.963-1.935-.963.958-.966-.958.966-.964Zm-.963-15.96-1.2,1.2,1.2,1.2,1.2-1.2Zm0,14.021,1.943-1.936-1.943-1.939-1.946,1.939Zm.963-1.936-.963.959-.966-.959.966-.96Zm-.963,9.686,1.943-1.939-1.943-1.936-1.946,1.936Zm.963-1.939-.963.963-.966-.963.966-.959Zm.979-12.656v-1.918l-.964.96Zm-1.943,24.7,1.2-1.2-1.2-1.2-1.2,1.2Zm0-29.478-1.946,1.936,1.946,1.939,1.943-1.939Zm-.966,1.936.966-.959.963.959-.963.96Zm.945,21.29-1.924,1.917,1.946,1.936,1.943-1.936-1.921-1.917,1.921-1.918-1.943-1.936-1.946,1.936Zm.985,1.917-.963.96-.966-.96.966-.959Zm0-3.835-.963.96-.966-.96.966-.959Zm-2.975-18.45v1.918l.963-.958Z" transform="translate(-1864.476 3840.409)" fill="#fff"/>
      </g>
      <g id="Group_1647" data-name="Group 1647" transform="translate(0 8.5)">
        <path id="Path_1265" data-name="Path 1265" d="M1802.556-3813.86v-1.919l-.962.959Zm0-3.874v-1.92l-.962.96Zm0-7.75v-1.919l-.962.96Zm-3.954,9.705v1.919l.963-.959Zm3.954-5.831v-1.919l-.962.96Zm-3.954-9.669v1.919l.963-.959Zm2.012-9.13-1.2,1.2,1.2,1.2,1.2-1.2Zm-2.012,20.755v1.92l.963-.96Zm0-3.875v1.919l.963-.959Zm0-3.875v1.919l.963-.959Zm2.012-10.606-1.946,1.936,1.946,1.939,1.942-1.939Zm-.967,1.936.967-.959.963.959-.963.96Zm-.979,3.875,1.946,1.936,1.942-1.936-1.942-1.936Zm1.946.96-.967-.96.967-.958.963.958Zm0,12.6,1.942-1.939-1.942-1.936-1.946,1.936Zm.963-1.939-.963.963-.967-.963.967-.959Zm-.963-1.936,1.942-1.935-1.942-1.94-1.946,1.94Zm.963-1.935-.963.958-.967-.958.967-.964Zm.979-4.911v-1.919l-.962.96Zm-1.942,2.971,1.942-1.936-1.942-1.939-1.946,1.939Zm.963-1.936-.963.959-.967-.959.967-.96Zm-.984,13.539-1.925,1.917,1.946,1.936-1.2,1.2,1.2,1.2,1.2-1.2-1.2-1.2,1.942-1.936-1.921-1.917,1.921-1.918-1.942-1.936-1.946,1.936Zm.984,1.917-.963.96-.967-.96.967-.959Zm0-3.835-.963.96-.967-.96.967-.959Zm.979-16.531v-1.918l-.962.96Zm-3.954-1.918v1.918l.963-.958Z" transform="translate(-1798.602 3840.409)" fill="#fff"/>
      </g>
      <g id="Group_1648" data-name="Group 1648" transform="translate(5.999 8.5)">
        <path id="Path_1266" data-name="Path 1266" d="M1812.783-3800.975l-.062.008-.058.011-.058.018-.054.025-.058.025-.054.033-.058.04-.051.043-.043.043-.036.043-.032.047-.022.051-.018.05-.011.051,0,.058v.459h1.127v-1.008h-.452Z" transform="translate(-1809.002 3827.616)" fill="#fff"/>
        <path id="Path_1267" data-name="Path 1267" d="M1833.7-3798.936l-.015-.076-.018-.068-.021-.066-.033-.061-.014-.025-.018-.025-.018-.025-.021-.026-.022-.021-.025-.018-.025-.018-.025-.019-.025-.017-.029-.015-.029-.014-.032-.011-.069-.019-.069-.014-.079-.008-.083,0-.065,0-.065.008-.061.018-.062.026-.062.029-.058.04-.058.043-.058.051-.051.054-.047.058-.036.057-.033.062-.025.062-.018.062-.011.065,0,.068,0,.062.011.061.018.061.022.058.032.061.036.054.043.058.051.054.054.051.058.043.058.04.058.029.061.025.062.014.065.011.065,0,.086,0,.076-.007.076-.011.069-.018.062-.025.058-.029.025-.018.025-.014.026-.023.021-.018.022-.022.018-.025.018-.025.018-.026.029-.054.025-.062.018-.064.015-.073.007-.076,0-.079,0-.086Z" transform="translate(-1815.538 3827.132)" fill="#fff"/>
        <path id="Path_1268" data-name="Path 1268" d="M1823.382-3802.811l-.022-.029-.022-.029-.029-.03-.029-.029-.032-.032-.029-.021-.033-.026-.036-.025-.036-.029-.022-.083-.022-.084-.025-.083-.026-.087-.014-.04-.021-.04-.022-.036-.025-.033-.033-.032-.032-.029-.04-.025-.044-.022-.04.04-.032.04-.033.043-.029.044-.021.043-.022.043-.018.044-.011.043-.029.1-.022.076-.014.05-.011.03-.032.021-.036.025-.036.036-.04.04-.04.051-.04.055-.043.057-.044.068h.022l.029,0,.029.007.04.015.043.018.05.022.054.029.058.033.113.062.087.044.054.025.029.011.036-.007.065-.026.087-.04.116-.054.119-.058.091-.043.069-.033.043-.021-.029-.058Z" transform="translate(-1812.256 3828.485)" fill="#fff"/>
        <path id="Path_1269" data-name="Path 1269" d="M1847.4-3809.245l-.015-.065-.022-.061-.029-.062-.036-.054-.04-.055-.047-.05-.051-.044-.054-.039-.058-.033-.061-.03-.062-.021-.069-.015-.069-.007-.072,0-.073,0-.072.007-.065.018-.065.022-.058.025-.058.036-.054.039-.054.047-.047.051-.04.054-.033.058-.029.062-.022.064-.014.065-.011.069,0,.072,0,.068.011.062.014.065.025.062.029.058.04.058.043.058.051.054.054.051.055.043.057.037.062.029.058.025.065.018.065.008.065,0,.068,0,.065-.008.065-.018.065-.025.058-.029.058-.037.054-.043.054-.051.051-.054.04-.058.036-.058.029-.062.022-.064.018-.065.011-.065,0-.072,0-.072Z" transform="translate(-1819.983 3830.474)" fill="#fff"/>
        <path id="Path_1270" data-name="Path 1270" d="M1807.482-3840.409v31.578h36.969v-31.578Zm33.09,2.414.011-.018.015-.022.022-.025.051-.059.068-.072.09-.086.1-.1.123-.113.141-.126.141-.123.127-.108.108-.091.094-.076.076-.061.058-.044.043-.025.028-.014.149.134v24.712h-1.334l0-21.756,0-.344-.01-.347-.007-.308-.011-.26-.015-.22-.018-.174-.018-.133-.007-.047-.011-.04-.011-.029-.011-.015Zm-2.776-.059.039-.04.055-.051.069-.058.079-.068.094-.083.1-.09.123-.1.134-.112.134-.109.116-.1.1-.079.087-.069.068-.054.054-.037.04-.025.022-.01.133.133v20.634h-3.069l-.119.18-.112.167-.1.149-.1.129-.09.116-.083.1-.039.044-.04.036-.037.033-.032.032-.057.043-.058.04-.061.04-.065.037-.069.033-.069.028-.072.029-.075.025-.076.021-.08.019-.083.015-.083.014-.086.011-.091.007-.094,0h-.178l-.083,0-.079-.007-.08-.011-.08-.014-.079-.015-.076-.019-.08-.021-.072-.025-.076-.029-.073-.028-.076-.033-.068-.037-.073-.04-.068-.04-.069-.043-.069-.047-.065-.05-.062-.051-.057-.05-.058-.055-.054-.057-.051-.058-.051-.062-.043-.062-.043-.065-.044-.065-.036-.069-.037-.073-.032-.072-.029-.072-.028-.076h-1.887v-1.4h1.442v.019h.445l.072-.1.068-.089.072-.091.072-.083.069-.08.072-.076.072-.073.068-.072.072-.065.073-.062.072-.057.068-.054.073-.051.072-.048.072-.042.072-.037.152-.079.14-.077.123-.071.112-.069.094-.068.083-.065.037-.032.037-.033.028-.029.026-.032.08.068.094.072.109.072.123.072.134.077.148.076.159.079.177.083.057.028.058.033.057.04.058.044.058.05.057.054.062.058.058.065.057.072.061.073.058.083.062.083.061.09.057.1.062.1.062.1h1.721l.021-15.9,0-.837,0-.311-.007-.267-.011-.235-.011-.2-.014-.17-.018-.137-.018-.1-.007-.036-.011-.033-.011-.021-.011-.014Zm-5.657,6.239.007-.062.014-.062.022-.055.025-.053.033-.051.036-.046.044-.043.051-.04.05-.037.051-.028.055-.026.057-.018.061-.011.062-.01h.141l.072.008.065.014.061.015.054.022.05.029.047.033.043.036.036.04.033.047.025.051.022.057.018.058.011.069.007.068,0,.076,0,.077-.007.068-.011.065-.018.062-.022.057-.025.05-.029.048-.036.039-.039.037-.047.032-.05.025-.054.022-.058.017-.065.011-.069.007-.072,0-.065,0-.065-.007-.062-.014-.058-.021-.058-.026-.054-.032-.051-.036-.051-.044-.043-.046-.04-.051-.032-.054-.025-.054-.022-.058-.015-.062-.011-.062,0-.064Zm-3.513-6.146.011-.019.014-.021.019-.026.05-.057.073-.073.086-.086.105-.1.123-.112.141-.126.145-.123.123-.108.109-.09.094-.075.076-.062.061-.043.043-.026.026-.014.148.134v12.109H1828.7l-.058-10.2-.007-.466,0-.292-.007-.1Zm-1.063,11.278h6.159l-.062-.065-.061-.076-.062-.091-.065-.1-.065-.116-.065-.126-.069-.142-.072-.155-.072-.173-.069-.16-.062-.14-.061-.13-.057-.112-.054-.1-.051-.083-.047-.065-.043-.054-.043-.051-.047-.047-.047-.043-.047-.04-.051-.037-.051-.033-.05-.029-.054-.029-.054-.021-.058-.018-.058-.019-.058-.011-.058-.007-.061-.007h-.095l-.032,0-.039.01-.037.007-.09.034-.1.04-.094.046-.076.047-.032.019-.025.021-.021.019-.018.021-.073-.032-.072-.184-.073-.185-.065-.18-.065-.184-.061-.181-.057-.181-.058-.177-.051-.181.09-.032.1-.029.108-.029.112-.019.123-.018.13-.011.137-.006.145,0,.083,0h.083l.083.006.083.007.08.008.08.011.076.01.076.015.075.015.077.017.072.018.072.022.069.026.072.024.068.025.065.03.069.032.062.033.065.033.062.037.062.04.061.04.062.04.058.044.054.046.058.046.054.048.054.05.1.108.051.059.047.057.058.083.076.123.09.163.108.206.123.242.145.286.16.326.177.364.058.116.062.112.065.1.062.094.065.087.069.079.065.069.069.065.072.058.073.046.036.022.036.022.036.018.036.015.036.014.04.011.036.011.039.011.04,0,.04.007h.036l.039,0,.036,0,.044-.007.047-.015.054-.021.057-.025.062-.029.072-.037.072-.043.011.116.011.112.014.112.018.1.021.1.029.1.028.1.037.094.036.094.044.092.043.086.05.086.055.081.058.079.057.076.065.076h-9.3Zm-2.776,0h.875v1.4h-.875Zm-4.576-11.278.011-.019.015-.021.022-.026.051-.057.072-.073.087-.086.105-.1.122-.112.141-.126.141-.123.126-.108.108-.09.094-.075.076-.062.057-.043.044-.026.028-.014.149.134v12.3h1.225v1.4h-2.558l-.029-11.694-.011-.271-.01-.228-.015-.185-.017-.14-.008-.055-.011-.04-.007-.028-.011-.019Zm-11.366,11.368h5.6l.032-1.312,0-.072,0-.065-.011-.068-.014-.062-.015-.062-.022-.062-.021-.058-.029-.058-.018-.032-.022-.033-.022-.029-.018-.028-.026-.026-.021-.022-.025-.021-.022-.018-.026-.018-.029-.015-.025-.011-.029-.011-.029-.007-.029-.007h-.028l-.033,0h-4.987l.1-.133.1-.134.086-.13.087-.123.08-.123.076-.119.069-.115.065-.116.062-.107.058-.1.051-.105.043-.1.043-.1.036-.094.028-.09.029-.087.1.1.094.083.083.072.076.058.069.047.061.032.025.011.026.008.025.007h3.275l.148.007.144.008.145.011.138.017.137.019.134.021.126.022.12.029.115.029.1.036.1.036.091.037.079.042.037.021.036.022.029.021.029.025.033.037.029.04.029.05.025.054.022.065.022.068.018.072.018.08.014.083.015.091.014.094.01.1.014.2.015.213.008.22,0,.228,0,.224v.448l0,.213v.387h1.875v-10.985l0-.025-.011-.033-.018-.037-.025-.047-.025-.043-.018-.04-.011-.033,0-.025.015-.087.054-.061.061-.062.069-.065.076-.069.08-.069.086-.072.094-.075.1-.077.141-.108.123-.1.108-.083.091-.072.076-.061.058-.051.043-.037.029-.025.087.046.062.148v13.639h-10.174Zm7.261,4.579-.029-.029-.025-.033-.022-.036-.022-.032-.022-.037-.017-.036-.015-.036-.014-.041-.011-.036-.011-.043-.007-.04-.008-.04-.007-.043v-.044l0-.047,0-.1,0-.1.008-.094.014-.09.015-.086.018-.083.021-.08.026-.08.025-.072.033-.068.033-.068.039-.062.04-.062.047-.055.047-.053.05-.052.044-.036.061-.043.084-.051.1-.054.115-.062.138-.064.151-.072.174-.076.119-.077.156-.1.04-.026.037-.019.033-.014.032-.007h.04l.01,0,.011.006.007.007.007.011,0,.01.043.142.054.159.062.169.061.169.066.159.054.138.029.059.022.046.018.036.018.021v.2l-.188-.072-.137-.046-.094-.033-.043-.011-.065,0-.062.011-.062.014-.062.021-.061.029-.058.036-.058.04-.054.047-.051.051-.047.054-.017.028-.018.029-.018.028-.014.03-.011.029-.015.032-.007.033-.007.033-.011.065,0,.069,0,.079.008.072.014.069.022.062.014.028.011.029.018.026.018.025.018.026.018.025.022.021.025.019.022.021.029.018.025.015.029.018.065.024.066.026.076.019.079.011.087.007.094,0,.032,0,.036,0,.036-.007.037-.011.032-.011.036-.014.036-.018.033-.022.065-.043.058-.029.043-.025.036-.015.007.072.007.076.011.072.015.072.017.077.018.076.022.072.021.076.026.076.029.076.032.076.036.077.037.075.036.076.043.079.044.076h-3.81v-.061l0-.058.007-.054.011-.058.011-.051.014-.05.018-.051.018-.047.025-.047.026-.043.025-.04.032-.04.033-.04.036-.036.04-.032.04-.033.044-.032.046-.025.051-.029.051-.026.054-.021.057-.021.123-.036.065-.014.069-.016.069-.01.076-.012.075-.007.076-.007.083,0h.083Zm-4.4.326,0,.065-.008.061-.014.062-.022.058-.025.054-.033.051-.036.046-.044.047-.047.043-.051.037-.051.029-.054.025-.058.019-.058.014-.057.007-.062,0h-.065l-.066-.011-.061-.011-.058-.021-.058-.021-.051-.029-.054-.036-.047-.04-.047-.043-.04-.047-.032-.05-.026-.054-.021-.055-.015-.062-.011-.061,0-.065,0-.065.008-.062.014-.061.022-.058.026-.055.032-.054.036-.051.047-.047.046-.043.051-.036.051-.032.054-.026.058-.022.062-.014.062-.007.069,0,.057,0,.058.007.054.014.058.022.054.029.051.032.054.04.05.043.048.051.039.051.032.05.029.051.022.058.015.055.011.057Zm-1.453,0,0,.075-.007.069-.011.068-.018.058-.021.059-.029.05-.032.046-.036.04-.044.037-.047.032-.051.025-.057.022-.062.017-.069.014-.072.008h-.076l-.062,0-.054-.007-.058-.014-.054-.023-.054-.025-.051-.033-.05-.036-.047-.044-.047-.046-.04-.051-.032-.05-.026-.054-.022-.055-.014-.058-.01-.061,0-.061,0-.062.01-.062.014-.058.018-.055.025-.053.033-.051.039-.051.044-.047.047-.043.047-.036.054-.032.054-.026.054-.022.058-.014.062-.007.062,0,.069,0,.065.007.062.014.057.019.058.025.051.029.051.037.047.043.04.047.037.046.032.051.025.055.018.058.014.062.007.062Zm16.773,9.732-.007.108-.011.105-.018.1-.021.1-.022.1-.033.094-.032.09-.04.09-.043.09-.047.083-.054.083-.058.08-.062.08-.065.071-.145.146-.076.061-.079.062-.084.054-.082.054-.087.047-.087.04-.094.041-.09.032-.1.029-.1.026-.1.017-.1.018-.1.011-.108.008h-.2l-.09,0-.087-.007-.083-.011-.083-.011-.079-.014-.08-.019-.076-.021-.076-.022-.076-.025-.069-.029-.072-.029-.069-.035-.065-.036-.065-.036-.062-.043-.062-.043-.058-.047-.057-.05-.054-.054-.055-.055-.051-.057-.051-.062-.047-.062-.047-.064-.043-.07-.043-.072-.04-.076-.04-.076-.036-.08-.036-.083-.032-.083h-.889v-.015h-2.848l-.043-.118-.043-.117-.051-.111-.057-.112-.061-.1-.066-.1-.068-.1-.072-.1-.08-.094-.086-.094-.087-.086-.094-.088-.1-.083-.105-.079-.108-.077-.112-.075-.1.086-.1.087-.1.089-.094.091-.091.09-.086.094-.083.093-.079.094-.073.1-.068.1-.069.1-.062.1-.054.1-.054.1-.051.105-.043.108H1809l.036-.072.036-.079.032-.08.029-.087.029-.094.029-.093.025-.1.026-.1.022-.109.021-.115.018-.12.014-.123.018-.129.011-.131.014-.141.011-.141.007-.126.014-.12.015-.115.014-.109.018-.1.018-.1.022-.094.021-.09.025-.083.029-.079.029-.072.029-.069.033-.061.036-.058.037-.051.036-.046.032-.037.033-.033.036-.029.037-.033.039-.029.044-.029.043-.025.043-.029.047-.026.051-.021.051-.026.055-.021.112-.041.12-.035.13-.033.134-.029.144-.021.152-.021.159-.015.169-.011.174,0,.184,0,.029-.029v-.383l0-.072-.008-.069-.011-.064-.017-.065-.022-.062-.025-.058-.032-.058.029-.148.043-.036.054-.047.069-.058.08-.065.09-.075.1-.083.116-.094.126-.1.126-.1.112-.087.1-.075.083-.062.069-.047.054-.035.04-.026.026-.011.134.09v4.178h2.952l.094-.134.094-.123.094-.119.09-.108.09-.1.09-.094.087-.087.087-.075-.015-.033-.087-.029-.086-.029-.087-.025-.086-.026-.083-.022-.083-.019-.087-.017-.083-.015-.083-.011-.083-.011-.083-.011-.079,0-.083,0-.079,0h-.08l-.079,0-.047-.147,0-.051,0-.051,0-.051.011-.05.011-.047.011-.05.018-.051.018-.05.021-.051.022-.051.025-.046.029-.051.029-.05.033-.051.036-.051.037-.05.043-.047.04-.051.047-.05.047-.051.1-.1.112-.1.122-.1.13-.1.141-.1.151-.1v-.065l0-.065.007-.065.007-.062.011-.061.015-.061.018-.062.018-.062.026-.057.025-.062.029-.058.029-.054.036-.058.037-.055.039-.058.04-.053.047-.051.047-.055.051-.05.109-.1.058-.05.061-.048.066-.049.068-.048.069-.047.072-.043.076-.046.08-.044.08-.042.083-.043.087-.043.17.076.155.077.145.079.13.076.062.04.062.044.054.04.055.04.046.044.047.039.043.043.04.044.047.054.043.054.044.062.036.058.036.065.032.065.029.065.025.068.025.069.018.075.018.073.014.076.015.079.007.08.007.083,0,.083.087.05.08.047.079.05.08.047.073.051.068.05.069.047.065.051.062.05.057.051.058.055.051.05.051.051.047.054.043.05.04.055.037.051.036.054.029.054.029.055.025.054.022.054.021.055.015.054.015.054.011.059.007.054,0,.058v.111l0,.058-.011.059-.087.006-.09.007-.087.007-.09.011-.091.011-.087.007-.09.011-.087.01-.1.015-.095.014-.09.019-.087.022-.083.021-.079.026-.076.032-.072.029.065.079.076.087.08.1.087.105.094.112.1.123.108.133.116.138H1823l.026-.062.025-.065.033-.061.037-.062.04-.062.043-.061.047-.058.051-.058.055-.058.057-.054.065-.057.066-.055.068-.05.076-.054.076-.051.083-.051.26-.158.224-.141.192-.116.156-.1.122-.08.087-.054.051-.036.017-.014.076.072.087.072.1.073.109.072.119.076.13.076.145.076.151.075.145.069.13.065.116.069.109.065.047.032.047.037.043.032.04.033.036.033.033.036.028.033.029.032.043.055.04.058.037.058.036.065.033.064.029.069.025.072.026.079.018.08.018.08.018.087.011.091.011.09.007.1,0,.1Zm1.416-6.415h-19.477l.112-.09.108-.091.1-.094.1-.1.095-.1.09-.1.087-.1.079-.1.076-.108.069-.108.068-.112.061-.112.054-.116.055-.116.047-.119.043-.123.156.083.144.072.134.061.127.051.057.022.058.018.054.015.051.014.051.008.047.007.044,0,.044,0h12v-17.9l-.148-.358v-.011l.007-.014.014-.019.015-.021.05-.053.069-.069.086-.083.109-.1.126-.112.145-.126.148-.126.13-.108.112-.09.1-.079.083-.059.061-.046.047-.026.032-.014.12.105v19.25h1.438v-17.927l0-.019-.011-.025-.015-.036-.022-.04-.026-.041-.014-.033-.011-.028,0-.018,0-.011.007-.018.011-.019.018-.025.05-.058.068-.072.087-.086.109-.1.13-.116.148-.126.148-.131.134-.108.115-.093.1-.081.08-.062.065-.043.047-.029.032-.014.1.134v19.222h1.178Zm10.5,8.085-.01.046-.015.051-.025.047-.029.046-.036.047-.04.047-.051.047-.051.043-.05.037-.055.032-.05.025-.05.021-.055.015-.05.006-.051,0-.066,0-.057-.01-.058-.014-.057-.022-.054-.026-.055-.032-.051-.04-.046-.046-.047-.048-.039-.05-.033-.054-.025-.058-.022-.058-.015-.061-.011-.065,0-.064,0-.065.007-.061.014-.062.021-.057.026-.056.032-.054.037-.05.046-.046.047-.044.051-.036.051-.033.055-.026.057-.021.062-.014.062-.008.069,0,.072,0,.072.008.065.014.061.021.029.011.025.015.029.015.025.015.022.018.021.019.022.021.022.021.018.025.018.025.014.026.018.024.025.062.022.064.018.073.011.076.007.083,0,.087Zm-10.2-1.143v-2.107l0-.217v-1.347l0-.169v-.322l0-.152,0-.147,0-.142v-.134l0-.108v-.452l0-.332v-.4l0-.459v-1.1l0-.621v-.672l0-.712v-.751l0-.788,0-.82v-.846l0-.868h1.373v12.266h1.319v.032h7.633l-.04-.032-.037-.036-.036-.037-.037-.039-.036-.047-.037-.047-.036-.046-.032-.055-.072-.116-.069-.126-.069-.141-.065-.149-.075-.18-.069-.163-.065-.145-.058-.126-.054-.109-.047-.094-.04-.072-.036-.057-.044-.055-.043-.05-.044-.043-.047-.043-.051-.04-.05-.036-.051-.033-.054-.028-.054-.026-.058-.021-.058-.018-.061-.014-.066-.015-.062-.007-.068,0-.066,0-.036,0h-.036l-.036.007-.036.008-.036.007-.037.014-.04.011-.036.019-.08.035-.076.048-.08.054-.079.062-.55-1.511.13-.036.13-.029.126-.026.119-.021.12-.018.116-.012.112-.006h.192l.083,0,.079,0,.08.008.08.007.076.011.075.011.076.014.073.015.072.018.072.022.072.022.068.021.069.025.065.026.069.028.062.033.065.033.062.032.062.036.062.04.058.04.057.04.058.044.057.046.055.047.051.051.054.05.05.051.051.054.047.058.051.058.026.032.028.044.036.054.04.062.09.159.109.2.123.238.144.279.159.322.177.36.058.117.061.107.058.1.065.095.062.083.065.079.069.073.065.062.072.054.069.05.036.022.036.018.036.018.037.014.04.016.036.01.04.011.036.008.04.006.04.007h.04l.036,0,.05,0,.051-.011.054-.01.058-.021.057-.026.062-.029.063-.036.068-.043.011.137.014.126.015.12.014.108.018.1.018.09.021.079.018.072.036.09.04.086.047.091.058.087.061.09.072.09.076.086.087.09Z" transform="translate(-1807.482 3840.409)" fill="#fff"/>
      </g>
      <path id="Path_1271" data-name="Path 1271" d="M1837.711-3848.667l-.155-.049a2.618,2.618,0,0,0-.811-.107,4.916,4.916,0,0,0-2.315.652,13.456,13.456,0,0,1-.077-2.933,1.9,1.9,0,0,1,.866,1.311l.029.108.02-.11a1.816,1.816,0,0,0-.494-1.572,1.063,1.063,0,0,1,.439.115,2.273,2.273,0,0,1,.893.812l.071.1-.026-.122a1.821,1.821,0,0,0-1.288-1.461c.015-.012.331-.237,1.266.071l.086.028-.059-.069a1.6,1.6,0,0,0-1.536-.47v0a1.441,1.441,0,0,1,.463-.461l.088-.061-.106.015a1.273,1.273,0,0,0-.789.368,1.394,1.394,0,0,0-.089-.437l-.024-.053-.023.053a1.393,1.393,0,0,0-.088.437,1.276,1.276,0,0,0-.79-.368l-.106-.015.088.061a1.443,1.443,0,0,1,.464.465,1.618,1.618,0,0,0-1.537.47l-.058.069.086-.028c.937-.31,1.251-.083,1.266-.071a1.82,1.82,0,0,0-1.288,1.46l-.025.123.07-.1a2.269,2.269,0,0,1,.893-.812,1.1,1.1,0,0,1,.437-.115h0a1.81,1.81,0,0,0-.494,1.572l.019.11.03-.108a1.9,1.9,0,0,1,.865-1.311,13.379,13.379,0,0,1-.077,2.933,4.915,4.915,0,0,0-2.315-.652h-.033a2.568,2.568,0,0,0-.778.107l-.155.049h.162a5.225,5.225,0,0,1,3.038.889l-.07.051a4.684,4.684,0,0,1-1.7.907.754.754,0,0,1-.209-.027l-.082-.024.063.074a.511.511,0,0,0,.4.206,3.861,3.861,0,0,0,1.725-.823c.083-.058.157-.109.214-.146.057.037.131.088.215.147a3.86,3.86,0,0,0,1.725.822.508.508,0,0,0,.4-.206l.065-.074-.083.024a.753.753,0,0,1-.21.027,4.688,4.688,0,0,1-1.7-.907l-.069-.051a5.228,5.228,0,0,1,3.039-.889Z" transform="translate(-1808.99 3852.991)" fill="#fff"/>
      <g id="Group_1649" data-name="Group 1649" transform="translate(0.265 44.385)">
        <path id="Path_1272" data-name="Path 1272" d="M1799-3787.224h.4v1.486h.014c.082-.119.164-.229.242-.33l.942-1.157h.489l-1.111,1.308,1.2,1.774h-.471l-1.016-1.513-.292.339v1.174h-.4Z" transform="translate(-1798.995 3787.27)" fill="#fff"/>
        <path id="Path_1273" data-name="Path 1273" d="M1803.064-3787.224v3.082h-.4v-3.082Z" transform="translate(-1800.184 3787.27)" fill="#fff"/>
        <path id="Path_1274" data-name="Path 1274" d="M1804.279-3784.142v-3.082h.443l.983,1.555a10.028,10.028,0,0,1,.553,1.005l.009,0c-.037-.412-.045-.787-.045-1.262v-1.294h.375v3.082h-.4l-.978-1.563a9.711,9.711,0,0,1-.576-1.029l-.013,0c.023.389.032.758.032,1.271v1.316Z" transform="translate(-1800.709 3787.27)" fill="#fff"/>
        <path id="Path_1275" data-name="Path 1275" d="M1810.995-3784.294a2.869,2.869,0,0,1-.946.168,1.585,1.585,0,0,1-1.153-.406,1.585,1.585,0,0,1-.43-1.147,1.548,1.548,0,0,1,1.669-1.591,1.992,1.992,0,0,1,.768.141l-.1.325a1.586,1.586,0,0,0-.681-.133,1.153,1.153,0,0,0-1.239,1.24,1.126,1.126,0,0,0,1.188,1.243,1.282,1.282,0,0,0,.531-.083v-.919h-.626v-.319h1.015Z" transform="translate(-1802.067 3787.284)" fill="#fff"/>
        <path id="Path_1276" data-name="Path 1276" d="M1814.541-3787.224h.4v1.486h.013c.082-.119.165-.229.242-.33l.941-1.157h.49l-1.111,1.308,1.2,1.774h-.471l-1.015-1.513-.292.339v1.174h-.4Z" transform="translate(-1804.039 3787.27)" fill="#fff"/>
        <path id="Path_1277" data-name="Path 1277" d="M1818.611-3787.224v1.294h1.49v-1.294h.4v3.082h-.4v-1.444h-1.49v1.444h-.4v-3.082Z" transform="translate(-1805.228 3787.27)" fill="#fff"/>
        <path id="Path_1278" data-name="Path 1278" d="M1823.013-3785.111l-.316.969h-.416l1.051-3.082h.476l1.052,3.082h-.426l-.329-.969Zm1.01-.31-.3-.888c-.069-.2-.115-.384-.16-.562h-.014c-.041.183-.091.371-.151.558l-.3.892Z" transform="translate(-1806.55 3787.27)" fill="#fff"/>
        <path id="Path_1279" data-name="Path 1279" d="M1826.76-3787.224h.4v2.743h1.316v.338h-1.719Z" transform="translate(-1808.003 3787.27)" fill="#fff"/>
        <path id="Path_1280" data-name="Path 1280" d="M1830.356-3787.224v3.082h-.4v-3.082Z" transform="translate(-1809.039 3787.27)" fill="#fff"/>
        <path id="Path_1281" data-name="Path 1281" d="M1831.57-3787.193a5.814,5.814,0,0,1,.851-.064,1.767,1.767,0,0,1,1.248.384,1.43,1.43,0,0,1,.434,1.107,1.637,1.637,0,0,1-.443,1.2,1.9,1.9,0,0,1-1.363.443,6.555,6.555,0,0,1-.727-.036Zm.4,2.725a2.525,2.525,0,0,0,.4.023,1.185,1.185,0,0,0,1.312-1.308,1.1,1.1,0,0,0-1.249-1.188,2.7,2.7,0,0,0-.465.041Z" transform="translate(-1809.563 3787.28)" fill="#fff"/>
        <path id="Path_1282" data-name="Path 1282" d="M1837.92-3787.224v1.834c0,.68.3.973.718.973.453,0,.75-.3.75-.973v-1.834h.4v1.8c0,.946-.494,1.33-1.162,1.33-.63,0-1.106-.357-1.106-1.313v-1.819Z" transform="translate(-1811.493 3787.27)" fill="#fff"/>
        <path id="Path_1283" data-name="Path 1283" d="M1841.894-3784.142v-3.082h.443l.983,1.555a9.859,9.859,0,0,1,.553,1.005l.01,0c-.037-.412-.046-.787-.046-1.262v-1.294h.375v3.082h-.4l-.978-1.563a9.951,9.951,0,0,1-.576-1.029l-.014,0c.023.389.033.758.033,1.271v1.316Z" transform="translate(-1812.912 3787.27)" fill="#fff"/>
        <path id="Path_1284" data-name="Path 1284" d="M1846.748-3787.224v3.082h-.4v-3.082Z" transform="translate(-1814.357 3787.27)" fill="#fff"/>
        <path id="Path_1285" data-name="Path 1285" d="M1848.486-3784.142l-1.011-3.082h.435l.48,1.519c.128.416.247.8.329,1.152h.013c.087-.356.21-.745.347-1.143l.522-1.527h.425l-1.1,3.082Z" transform="translate(-1814.723 3787.27)" fill="#fff"/>
        <path id="Path_1286" data-name="Path 1286" d="M1853.326-3785.586h-1.193v1.116h1.335v.329h-1.737v-3.082h1.668v.33h-1.266v.978h1.193Z" transform="translate(-1816.103 3787.27)" fill="#fff"/>
        <path id="Path_1287" data-name="Path 1287" d="M1855.053-3787.193a4.241,4.241,0,0,1,.768-.064,1.258,1.258,0,0,1,.891.251.785.785,0,0,1,.243.586.808.808,0,0,1-.581.786v.009a.791.791,0,0,1,.453.626,4.648,4.648,0,0,0,.238.845h-.412a4.037,4.037,0,0,1-.205-.735c-.091-.421-.256-.586-.617-.6h-.374v1.334h-.4Zm.4,1.4h.407c.425,0,.695-.234.695-.585,0-.4-.288-.572-.709-.576a1.615,1.615,0,0,0-.393.036Z" transform="translate(-1817.182 3787.28)" fill="#fff"/>
        <path id="Path_1288" data-name="Path 1288" d="M1858.567-3784.648a1.416,1.416,0,0,0,.713.2c.407,0,.645-.214.645-.526,0-.288-.165-.453-.585-.612-.5-.173-.81-.444-.81-.874a.887.887,0,0,1,1-.832,1.48,1.48,0,0,1,.681.147l-.11.324a1.22,1.22,0,0,0-.585-.146c-.421,0-.581.251-.581.462,0,.288.187.43.612.594.522.206.786.453.786.905,0,.476-.352.891-1.079.891a1.6,1.6,0,0,1-.791-.2Z" transform="translate(-1818.288 3787.291)" fill="#fff"/>
        <path id="Path_1289" data-name="Path 1289" d="M1862.43-3787.224v3.082h-.4v-3.082Z" transform="translate(-1819.444 3787.27)" fill="#fff"/>
        <path id="Path_1290" data-name="Path 1290" d="M1864.067-3786.884h-.937v-.339h2.281v.339h-.942v2.742h-.4Z" transform="translate(-1819.802 3787.27)" fill="#fff"/>
        <path id="Path_1291" data-name="Path 1291" d="M1867.744-3784.142v-1.3l-.974-1.779h.453l.434.851c.119.238.21.425.307.636h.009c.082-.2.192-.4.311-.636l.444-.851h.448l-1.029,1.77v1.312Z" transform="translate(-1820.983 3787.27)" fill="#fff"/>
      </g>
    </g>
    <rect id="Rectangle_1038" data-name="Rectangle 1038" width="52.841" height="53.011" transform="translate(1795.598 -3856.595)" fill="none" stroke="#fff" stroke-miterlimit="10" stroke-width="1"/>
  </g>
</svg>
