<svg xmlns="http://www.w3.org/2000/svg" width="240" height="170" viewBox="0 0 240 170">
  <g id="Group_1664" data-name="Group 1664" transform="translate(-252 -1852)">
    <g id="Group_1562" data-name="Group 1562" transform="translate(-685 -41)">
      <rect id="Rectangle_975" data-name="Rectangle 975" width="240" height="170" transform="translate(937 1893)" fill="rgba(236,239,238,0.75)" opacity="0.999"/>
    </g>
    <path id="Icon_awesome-file-pdf" data-name="Icon awesome-file-pdf" d="M20.856,29.364c-.573-1.835-.562-5.377-.229-5.377C21.59,23.986,21.5,28.217,20.856,29.364Zm-.195,5.412a52.907,52.907,0,0,1-3.256,7.189,42.22,42.22,0,0,1,7.212-2.511A14.853,14.853,0,0,1,20.661,34.776ZM9.872,49.085c0,.092,1.513-.619,4-4.609C13.105,45.2,10.537,47.285,9.872,49.085Zm18.563-30.74H44.029V55.953A2.745,2.745,0,0,1,41.277,58.7H2.752A2.745,2.745,0,0,1,0,55.953V2.752A2.745,2.745,0,0,1,2.752,0H25.683V15.593A2.76,2.76,0,0,0,28.435,18.345Zm-.917,19.7a11.508,11.508,0,0,1-4.9-6.169c.516-2.121,1.33-5.343.711-7.361-.539-3.371-4.861-3.038-5.481-.78-.573,2.1-.046,5.056.929,8.829A107.666,107.666,0,0,1,14.1,42.4c-.011,0-.011.011-.023.011-3.107,1.594-8.439,5.1-6.249,7.8A3.563,3.563,0,0,0,10.3,51.355c2.052,0,4.093-2.064,7.006-7.086a65.357,65.357,0,0,1,9.058-2.66A17.376,17.376,0,0,0,33.7,43.845c3.348,0,3.577-3.669,2.259-4.976-1.594-1.559-6.226-1.112-8.439-.826Zm15.708-26L31.989.8A2.75,2.75,0,0,0,30.04,0h-.688V14.676H44.029v-.7A2.743,2.743,0,0,0,43.226,12.039Zm-8.5,29.272c.47-.31-.287-1.364-4.907-1.032C34.076,42.091,34.73,41.311,34.73,41.311Z" transform="translate(343.897 1908.563)" fill="#de8d61"/>
  </g>
</svg>
