<svg xmlns="http://www.w3.org/2000/svg" width="240" height="170" viewBox="0 0 240 170">
  <g id="Group_1667" data-name="Group 1667" transform="translate(-934 -2233)">
    <g id="Group_1562" data-name="Group 1562" transform="translate(-3 340)">
      <rect id="Rectangle_975" data-name="Rectangle 975" width="240" height="170" transform="translate(937 1893)" fill="rgba(236,239,238,0.75)" opacity="0.999"/>
    </g>
    <g id="Icon_feather-file-text" data-name="Icon feather-file-text" transform="translate(1034.966 2299.147)">
      <path id="Path_1212" data-name="Path 1212" d="M30.46,3H10.892A4.892,4.892,0,0,0,6,7.892V47.029a4.892,4.892,0,0,0,4.892,4.892H40.244a4.892,4.892,0,0,0,4.892-4.892V17.676Z" transform="translate(-6 -3)" fill="none" stroke="#de8d61" stroke-linecap="round" stroke-linejoin="round" stroke-width="3"/>
      <path id="Path_1213" data-name="Path 1213" d="M21,3V17.676H35.676" transform="translate(3.46 -3)" fill="none" stroke="#de8d61" stroke-linecap="round" stroke-linejoin="round" stroke-width="3"/>
      <path id="Path_1214" data-name="Path 1214" d="M31.568,19.5H12" transform="translate(-2.216 7.406)" fill="none" stroke="#de8d61" stroke-linecap="round" stroke-linejoin="round" stroke-width="3"/>
      <path id="Path_1215" data-name="Path 1215" d="M31.568,25.5H12" transform="translate(-2.216 11.191)" fill="none" stroke="#de8d61" stroke-linecap="round" stroke-linejoin="round" stroke-width="3"/>
      <path id="Path_1216" data-name="Path 1216" d="M16.892,13.5H12" transform="translate(-2.216 3.622)" fill="none" stroke="#de8d61" stroke-linecap="round" stroke-linejoin="round" stroke-width="3"/>
    </g>
  </g>
</svg>
