<svg xmlns="http://www.w3.org/2000/svg" width="240" height="170" viewBox="0 0 240 170">
  <g id="Group_1666" data-name="Group 1666" transform="translate(-934 -1852)">
    <g id="Group_1562" data-name="Group 1562" transform="translate(-3 -41)">
      <rect id="Rectangle_975" data-name="Rectangle 975" width="240" height="170" transform="translate(937 1893)" fill="rgba(236,239,238,0.75)" opacity="0.999"/>
    </g>
    <path id="Icon_material-video-library" data-name="Icon material-video-library" d="M7.892,12.784H3V47.029a4.906,4.906,0,0,0,4.892,4.892H42.136V47.029H7.892ZM47.029,3H17.676a4.906,4.906,0,0,0-4.892,4.892V37.244a4.906,4.906,0,0,0,4.892,4.892H47.029a4.906,4.906,0,0,0,4.892-4.892V7.892A4.906,4.906,0,0,0,47.029,3ZM27.46,33.575V11.561L42.136,22.568Z" transform="translate(1027.074 1911.147)" fill="#de8d61"/>
  </g>
</svg>
